<svg id="Capa_1" data-name="Capa 1" xmlns="http://www.w3.org/2000/svg" viewBox="0 0 512 512"><defs><style>.cls-1{fill:#006a2f;}</style></defs><path class="cls-1" d="M502,86.5H488v-23a10,10,0,0,0-20,0v23H440v-23a10,10,0,0,0-20,0v23H406a10,10,0,0,0-10,10v48a58.08,58.08,0,0,0,48,57.12V438H366.59V376.58h.21a10,10,0,0,0,7.07-2.93l43-43a10,10,0,0,0,0-14.14l-51.22-51.22a10,10,0,0,0-14.14,14.14l44.14,44.15L366.8,352.45,222.38,208a10,10,0,0,0-14.14,0L63.82,352.45,35,323.61,193.66,164.94a30.61,30.61,0,0,1,43.3,0l50.9,50.89A10,10,0,0,0,302,201.69l-50.9-50.9a50.63,50.63,0,0,0-71.58,0L13.77,316.54a10,10,0,0,0,0,14.14l43,43a10,10,0,0,0,7,2.93V502a10,10,0,0,0,10,10H356.59a10,10,0,0,0,10-10V458H454a10,10,0,0,0,10-10V201.62a58.09,58.09,0,0,0,48-57.12v-48a10,10,0,0,0-10-10ZM177.31,492V376h76V492Zm169.28,0H273.31V366a10,10,0,0,0-10-10h-96a10,10,0,0,0-10,10V492H83.76V361c0-.07,0-.13,0-.2L215.31,229.24l131.3,131.3c0,.16,0,.31,0,.46ZM492,144.5a38,38,0,0,1-76,0v-38h76Z" transform="translate(0 0)"/><path class="cls-1" d="M95.5,141.5a46,46,0,1,0-46-46A46.06,46.06,0,0,0,95.5,141.5Zm0-72a26,26,0,1,1-26,26A26,26,0,0,1,95.5,69.5Z" transform="translate(0 0)"/><path class="cls-1" d="M95.5,26.13a10,10,0,0,0,10-10V10a10,10,0,0,0-20,0v6.13A10,10,0,0,0,95.5,26.13Z" transform="translate(0 0)"/><path class="cls-1" d="M85.5,174.87V181a10,10,0,0,0,20,0v-6.13a10,10,0,0,0-20,0Z" transform="translate(0 0)"/><path class="cls-1" d="M174.87,105.5H181a10,10,0,0,0,0-20h-6.13a10,10,0,0,0,0,20Z" transform="translate(0 0)"/><path class="cls-1" d="M26.13,95.5a10,10,0,0,0-10-10H10a10,10,0,0,0,0,20h6.13A10,10,0,0,0,26.13,95.5Z" transform="translate(0 0)"/><path class="cls-1" d="M32.31,144.55,28,148.89A10,10,0,1,0,42.11,163l4.34-4.34a10,10,0,0,0-14.14-14.14Z" transform="translate(0 0)"/><path class="cls-1" d="M151.62,49.38a10,10,0,0,0,7.07-2.93L163,42.11A10,10,0,0,0,148.89,28l-4.34,4.34a10,10,0,0,0,7.07,17.07Z" transform="translate(0 0)"/><path class="cls-1" d="M32.31,46.45A10,10,0,0,0,46.45,32.31L42.11,28A10,10,0,0,0,28,42.11Z" transform="translate(0 0)"/><path class="cls-1" d="M326.75,250.58a10,10,0,1,0-7.07-2.93A10,10,0,0,0,326.75,250.58Z" transform="translate(0 0)"/></svg>